<mxfile host="app.diagrams.net" modified="2023-05-23T16:31:12.271Z" agent="Mozilla/5.0 (Macintosh; Intel Mac OS X 10_15_7) AppleWebKit/537.36 (KHTML, like Gecko) Chrome/113.0.0.0 Safari/537.36" version="21.3.2" etag="yXuJ-5cPaCUyeOr7YqvF" type="github">
  <diagram name="Page-1" id="989kmhCoe_en5YzRgdvz">
    <mxGraphModel>
      <root>
        <mxCell id="0" />
        <mxCell id="1" parent="0" />
      </root>
    </mxGraphModel>
  </diagram>
</mxfile>
